<svg version="1" xmlns="http://www.w3.org/2000/svg" width="340" height="340" viewBox="0 0 255.000000 255.000000"><path d="M57.7 53.5c-.2.5-.3 10.1-.3 21.2.1 11.2-.2 20.3-.6 20.3-.4 0-.5.6-.2 1.3.8 2.1 1.1 22.6.3 22.9-1 .4 2.1 7.8 3.3 7.8.5 0 .7-.4.3-1-.3-.5.7-.8 2.4-.7 1.6.1 2.7.5 2.5.8-.2.4.3 1.2 1 1.8 1.2 1 1.3.8.9-1.1-.5-2.3-.5-2.3 1.1-.3 1 1.1 1.4 1.4 1 .6-.5-1-.1-1.2 1.7-.7 2.4.7 2.4.7-.1-.8-1.4-.9-1.9-1.5-1.1-1.6.8 0 1.1-.6.7-1.6-.4-1.1-.2-1.5.7-1.1 1 .4 1.3-.7 1.3-3.8 0-2.8-.4-4.2-1-3.8-.6.3-.8.3-.4-.2.4-.4.2-1.5-.5-2.3-.8-1-.8-1.3-.1-.9.7.4 1.5 0 1.8-.9.9-2.3.7-3.1-.3-1.6-.7 1.1-.9 1-1.4-.3-.4-.9-.3-1.4.2-1.1.5.3.9-.5.9-1.9 0-1.5-.5-2.2-1.2-1.8-.7.4-.7.2.1-.7.6-.7.9-1.9.6-2.7-.3-.8 0-1.9.8-2.4 1.2-.7 1.2-.9 0-.9-1.1 0-.9-.4.5-1.5 1.6-1.3 1.6-1.4.2-.9-2.1.7-2.4-1.5-.5-3.5 1-1.1.9-1.3-.3-.9-1 .4-1.6 0-1.6-1.2 0-1 .3-1.7.7-1.4 1.1.6 1.9-2.4 1.2-4.3-.4-1-.2-1.4.4-1 .7.5.9 0 .6-1.3-.3-1.1-1-2-1.5-2s-.7-.4-.3-1c.3-.5 1.3-.7 2.3-.4 1.4.5 1.4.4.2-.4-.8-.6-1.8-.8-2.2-.6-1.4.9-.9-.7.7-2.2.8-.9 1.9-1.2 2.5-.9.6.4.9.1.8-.6-.2-.7.2-1.3.9-1.4.6 0 1.5-.3 1.9-.7.3-.4-.3-.5-1.5-.3-1.4.2-1.9 0-1.5-.7.4-.7.2-.8-.5-.4-.6.4-.9 1.2-.6 1.7 1 1.5-1.2 1-2.5-.6-1.1-1.3-1-1.4.5-.9 1.4.6 1.6.4 1-.7-.4-.8-.5-1.1 0-.7.4.4 1.5.2 2.3-.5 1.1-.8 1.4-.8.9 0-.4.6-.3 1.4.2 1.7.5.4 1.2.2 1.6-.3.3-.5 1.4-.9 2.5-.8 1 .1 1.6.5 1.4.9-.3.4-.1.8.5.8.5 0 1.2-.6 1.4-1.3.4-.7.6-.6.6.5.1.9-.5 1.9-1.1 2.1-1 .4-1 .6 0 .6.7.1 1.7-.9 2.2-2.2.8-1.9.9-2 .9-.3.1 2 .1 2 1.7 0 .8-1 1.3-1.4 1-.8-.3.7.1 1.5 1 1.8 1 .4 1.3.2.8-.7-.4-.7-.1-.7.7.2 1.1 1.1 1.2 1.4.1 1.8-1 .4-.7.9.8 2 1.2.9 1.9 2.1 1.6 3-.3.8-.2 1.2.3.9 1.8-1.1 2.8 2.1 2.7 8.1-.1 3.5.2 6.3.6 6.3.5 0 .5.8 0 1.7-.5 1-.8 4.4-.6 7.6.2 4.2-.1 5.5-.9 5-.8-.4-.8-.2.1.9.7.8 1 2.3.6 3.2-.3.9-.1 1.6.5 1.6.9 0 .9.5.1 2-.6 1.1-1.6 1.8-2.2 1.4-.7-.4-.6-.9.3-1.5 1.2-.7 1.2-1 0-2.1-.9-.8-1.1-.9-.7-.1.3.6.2 1.5-.4 1.8-.8.5-.7 1.1.1 2.1.6.7 1.5 1.2 1.9.9.5-.3 1.1-.1 1.4.4.4.5.2 1.2-.4 1.6-.6.4-.8 1-.5 1.5.3.5-.6.7-1.9.4-3.1-.5-4 2.2-1.7 5.1 1.5 1.9 1.5 1.9-.4.5s-1.9-1.4-.6.3c1 1.3 1.7 1.5 2.7.6 1-.8 1.8-.9 2.7 0 .8.6 1.7.8 2.1.4.3-.4 1.6-.8 2.7-1 1.7-.3 2 .1 1.6 1.7-.4 1.7-.3 1.9.8 1 1-.8 1.4-.7 1.8.7.4 1.7.5 1.7.6-.1.1-1.5.4-1.6 1.6-.6 1 .9 1.5.9 1.5.1 0-1-1.3-1.5-3.2-1.2-.5 0-.8-.3-.8-.8 0-.6.9-.9 2-.8 1.1.1 2 .6 2 1.1 0 .5.3.6.7.3.3-.4 1.6.1 2.7 1 2 1.8 2 1.8.2-1.1-1-1.6-1.3-2.5-.6-2.1.6.4 2.1 2.1 3.2 3.9 1.5 2.4 1.8 2.6 1.3.8-.7-2.3-.7-2.3 1.9-.7 2.5 1.7 2.6 1.7 1.9-.1-.6-1.6-.4-1.7.8-.7 1.2 1 1.5.8 1.6-1 .2-1.8 0-1.9-.8-.7s-1 1.2-.7.1c.2-.8 1.6-1.5 3.1-1.7 2.4-.2 2.5-.1 1.2 1.2-.8.9-1.5 2.1-1.5 2.7 0 .9.2.9.8.1 1.2-1.9 5-3.4 7.4-3 1.3.3 2.3.5 2.3.6 0 .1.8.3 1.8.5 1.3.2 1.7-.1 1.3-1.1-.3-.9-.1-1.2.5-.9.5.4.7 1.6.4 2.8-.5 1.6-.4 1.8.3.8.7-.9 1.2-1 1.6-.2.4.6 1.2.9 1.7.5.5-.3.7-1 .3-1.5-.3-.5-1.1-.6-1.7-.2-.7.4-.6 0 .2-1 1.3-1.7 2.6-2.4 1.7-.9-.2.4.2 1.5.9 2.5 1.2 1.6 1.3 1.6 1.8-.4.5-1.7.9-1.9 2.6-1 2.8 1.6 3 1.5 2.6-2.2-.2-1.7-.4-3.6-.4-4.1-.1-.4-.8-.6-1.6-.2-.8.3-2.1.3-2.9 0-1.2-.5-1.3-1.3-.6-4.4 0-.3.7.4 1.5 1.4.8 1.1 1.5 1.5 1.5.9 0-.7-.7-1.9-1.6-2.7-1.4-1.5-1.4-1.6.5-1.6 1.1 0 2.3-.5 2.7-1.2.4-.7.3-.8-.5-.4-1.9 1.2-4.4-1.4-3-3 .9-1.1.8-1.4 0-1.4s-.7-.6.3-1.6c.9-.8 1.3-2 1-2.6-.7-1.2 1.6-2.9 2.8-2.2.4.3.8 1.2.8 2s-.5 1.2-1 .9c-.6-.4-.7-1.1-.4-1.7.4-.7.2-.8-.5-.4-.9.6-.9 1.1 0 2.2 1.5 1.9 1.8 1.8 2.9-.9l.9-2.2v2.2c.1 1.3.5 2.3 1 2.3.6 0 .8.9.6 2-.2 1.1.1 1.9.8 1.7.7-.1 1.1.5.9 1.3-.3 1.3-.1 1.3 1.3-.1.9-.9 1.7-3.2 1.8-5.1.1-2 .9-4.3 1.6-5.2 1.2-1.4 1.2-1.6-.5-1-1 .4-1.6.4-1.2-.1.4-.4.3-1.4-.3-2.1-.9-1.1-.7-1.5.5-2 1.5-.6 1.5-.8-.1-2.1-1.4-1.2-1.5-1.4-.2-1 .9.3 1.6-.1 1.6-.9s-.5-1.3-1.2-1c-.7.2-1-.6-.7-2.5.3-2.4.1-2.9-1.5-2.9-1.4 0-2.3 1.1-3.2 4-.7 2.2-1.6 3.8-2.1 3.5-.4-.3-1.5.2-2.3 1-2 1.9-2.8 1.9-2 0 .3-1 .1-1.5-.7-1.3-.7.2-1.3-.8-1.4-2.4-.1-2 .2-2.4 1-1.7s1.4.6 1.9-.1c.3-.6 1.1-.7 1.7-.4.7.4.8.2.4-.5-.6-.9-1.1-.9-2.2 0-1.4 1.2-1.5 1-1.8-2.4-.1-.6-.5-1.6-1.1-2-.6-.5-.3-.7.7-.3 1.2.3 1.5.1 1.1-1-.3-.7-.9-1.4-1.5-1.4-.5 0-.2-.7.6-1.6 1.9-1.9 2.1-3.1.3-1.5-1 .8-1.4.7-1.4-.3 0-.7.9-1.2 2.1-1.1 2.9.3 2.8.2 1.5 2.7-.9 1.8-.9 2 0 1.2.7-.6 1.4-2 1.5-2.9.3-1.9 4.6-3 4.6-1.2 0 .5.7.6 1.6.3 1-.4 1.3-.2.8.6s-.2.9 1 .5c1.4-.6 1.6-.3 1 1.5-.6 2-.5 2.1.9 1 1.3-1.1 1.8-1 3.1 1 .8 1.3 1.6 3 1.8 3.8.7 3.2 4.8 5.5 4.8 2.7 0-.9.2-.9.9.1.6 1.1 1 1 1.5-.4.4-1.1.2-2-.3-2.2-2.1-.7-1-2.3 1.2-1.8 1.2.3 1.6.3.9 0-1-.5-1-.9 0-2.2 1.2-1.5 1.1-1.6-.4-.3-1.3.9-1.8 1-1.8.2 0-.7-.5-.9-1.2-.5s-.8.3-.4-.5c.4-.6 1.1-.9 1.5-.7.3.3.7-.4.7-1.4 0-1.2-.4-1.6-1.1-1-.7.6-1-.6-1.1-3.5 0-2.4.4-4.1.8-3.9.4.3.8-.1.8-.8 0-.8.5-.6 1.1.5.6.9 1.5 1.5 2 1.2.5-.4.6-1.2.2-1.8-.5-.9-.3-.9.8-.1 1.6 1.3 7.7 1.3 9.9-.1 1.3-.8 1.3-.7.1.9-1.3 1.6-1.3 1.7.4 1.4 1.3-.2 2 .5 2.6 2.5.7 2.5.5 2.7-1.4 2.2-1.2-.4-1.7-.3-1.1.2.6.4 1 1.6.8 2.6-.1.9.1 1.5.6 1.2.4-.3 1 .9 1.2 2.5.3 2.2.1 3-1.1 3-1.3 0-1.4.2-.2.9 1 .7 1.4 3.6 1.5 11.7.1 9.8-.1 11-1.8 11.9-1.1.5-2.1 1.7-2.3 2.5-.3 1-.1.9.7-.3.6-.9 1.8-1.7 2.7-1.7 1.4 0 1.4.2-.3 1.6-1 .8-1.4 1.3-.8 1 .7-.4 1.4.6 1.6 2.5.3 2.1.1 2.8-.8 2.5-1.5-.6-1.3.7.9 5.8.9 2.1 1.7 4.2 1.7 4.7 0 .4.9.7 1.9.6 1.1 0 1.8-.4 1.6-.7-.2-.3.5-.6 1.6-.6 1.4 0 1.8.6 1.4 2.1-.3 1.1-.2 1.4.1.7.3-.6 1.1-.9 1.6-.6.7.5.8.2.3-.6s-.3-1.1.6-.8c.8.3 1.3 1.2 1.1 1.9-.2.8 0 1 .5.6.4-.5.8-1.4.8-2 0-.7.5-1.2 1.2-1.2.6 0 1.4-.3 1.8-.7.9-.8-1.6-.5-3.2.5-.6.4-1.5.3-1.8-.3-.4-.6-.1-.9.7-.8.7.2 1.2-.2 1.1-.9-.2-.7.6-1 2-.8 2 .4 2 .3.5-.9-1.9-1.4-3.1-6.3-1.8-7.1.5-.3.7.3.5 1.4-.3 1.4.1 1.8 1.2 1.4.8-.3 1.1-.9.6-1.2-.5-.3-.8-2-.8-3.6.1-1.7-.3-3.3-.9-3.7-.6-.4-.6-1.5.1-3 .9-2 .8-2.7-.6-3.7s-1.4-1.1 0-.7c.9.2 2.2 0 3-.5 1-.6 1.1-.9.2-1-2.8-.3-3.2-.4-4-1.2-.4-.5-.3-.8.2-.7 2.4.5 2.7-.1.9-1.6-1.2-1-1.4-1.4-.4-1.1.8.2 2.1-.2 2.9-1 1.2-1.3 1.1-1.4-.7-.9-1.2.4-2.3.2-2.8-.5-.5-.8-.3-.9.6-.4.9.6 1 .2.5-1.5s-.4-2.1.6-1.6c.8.4.5 0-.6-1-1.2-1-1.4-1.5-.5-1.2.8.3 2.1-.1 2.9-.9 1.2-1.3 1.1-1.4-.7-.9-1.2.4-2.3.2-2.8-.5-.5-.8-.3-.9.6-.4.9.5 1 .2.6-1.3-.4-1.1-.2-2.3.4-2.7.7-.5.5-1.2-.7-2.1-1.7-1.4-1.6-1.5.7-.9 1.4.4 2 .3 1.5-.2-.6-.4-1-1.5-1-2.3 0-.8-.4-1.8-.9-2.2-.6-.4-.6-1.5.1-3 .9-2 .8-2.7-.6-3.6-1.5-1.1-1.5-1.2.1-.9.9.1 1.7-.3 1.7-.8.1-.6-.3-1-.8-1s-1.3-.4-1.8-.9c-.4-.5-.3-.6.4-.2.6.3 1.4.2 1.7-.3.3-.5 0-1.1-.8-1.4-.7-.3-1.2-1.6-1.1-3 .6-5.5 4.4-5.2-73.9-5.2-48.9 0-72.7.3-72.9 1zm37.4 14.2c1.3 1.6 1.2 1.7-.3.4-1-.7-1.8-1.5-1.8-1.7 0-.8.8-.3 2.1 1.3zm20.8-.1c.4-.3 1.3 0 2.1.5 1.1.7.9.8-.9.6-1.4-.2-2.6-.9-2.7-1.6-.1-.6 0-.7.3-.1.2.5.8.8 1.2.6zm8 2c.6-.4.8-1.2.5-1.8-.4-.6-.2-.8.4-.4.5.3 1.3 0 1.6-.6.6-1.6 0 3.4-.9 6.5-.3 1.2-.3 1.7.2 1.2 1.4-1.7 3.6-1.7 2.9 0-.5 1.3-.2 1.4 1.5.5 1.8-1 1.9-.9.7.9-.6 1.1-1.6 1.7-2 1.5-.4-.3-.8 0-.8.6s-.5.8-1.2.4c-.6-.4-.8-.3-.5.3.8 1.2-3.7 5.6-4.7 4.6-.4-.4-.4.1 0 1.1.5 1.4.4 1.7-.4 1.2-.7-.4-1.2-.2-1.2.3 0 .6-.7 1.1-1.6 1.1-.8 0-1.2.4-.9 1 .4.6-.1.7-1.1.3-1.3-.5-1.5-.3-.9.8.5.8.4 1.1-.1.6-1.1-1-1.4-5.8-.2-5.1.4.3.5 1 .2 1.6-.4.7-.2.8.4.4.6-.4.8-1.4.5-2.4-.6-1.5-.5-1.6 1.2-.2 1.7 1.4 1.7 1.4.4-.8-.8-1.2-1.7-2.2-2.2-2.2-.4 0-.6.4-.3.8.3.5-.1.9-.8.9-.7 0-1.3-.6-1.3-1.3 0-.7.5-1 1-.7.6.4.8 0 .4-1s-.2-1.4.6-1.1c.7.2 1.8-.5 2.5-1.7.8-1.2.9-1.8.4-1.5-.6.3-1.2 0-1.5-.7-.3-.9.3-1.3 1.6-1.3 2.4.1 2.9-2.3 1.4-5.9-.7-1.6-.4-1.5 1.1.4 1.1 1.3 2.4 2.1 3.1 1.7zm26.8-2.3c0 .8-.6 1.4-1.4 1.4-.9 0-1-.4-.2-1.4.6-.7 1.2-1.3 1.4-1.3.1 0 .2.6.2 1.3zm18 .2c0 .8-.4 1.2-.9.9-.5-.3-.6-1-.3-1.5.9-1.3 1.2-1.1 1.2.6zm-33.7.1c0 .8-1.9 1.3-2.4.6-.3-.5.1-.9.9-.9s1.5.2 1.5.3zm24 0c0 .8-1.9 1.3-2.4.6-.3-.5.1-.9.9-.9s1.5.2 1.5.3zm-86 3.8c0 .3-.4.8-1 1.1-.5.3-1 .1-1-.4 0-.6.5-1.1 1-1.1.6 0 1 .2 1 .4zm25 4.7c0 .6-.4.7-1 .4-.5-.3-1-1.1-1-1.6 0-.6.5-.7 1-.4.6.3 1 1.1 1 1.6zm18-.6c.7.9.8 1.5.2 1.5-.5 0-1.2-.7-1.6-1.5-.3-.8-.4-1.5-.2-1.5s.9.7 1.6 1.5zM72 80c0 .5-.2 1-.4 1-.3 0-.8-.5-1.1-1-.3-.6-.1-1 .4-1 .6 0 1.1.4 1.1 1zm-.2 4.5c-.3.3-.9-.2-1.2-1.2-.6-1.4-.5-1.5.5-.6.7.7 1 1.5.7 1.8zm59.7-.5c.3.5.1 1-.4 1-.6 0-1.1-.5-1.1-1 0-.6.2-1 .4-1 .3 0 .8.4 1.1 1zm-1.9 4.3c.4 3.3.4 3.3 1.2 1.9.6-.8.9-.2.9 1.9 0 3.1 0 3.1-1.3.7-.7-1.2-1.3-1.7-1.4-1 0 .7-.5 1-1.1.6-.8-.4-.7-.9.2-1.5 1.3-.8.5-1.3-1.4-1-.5.1-.6-.3-.2-.9.3-.6 1.1-.8 1.6-.5.5.4.9.1.9-.4 0-.6-.5-1.1-1.1-1.1-.5 0-.7-.5-.4-1.1.9-1.4 1.8-.4 2.1 2.4zm-12.3 17.4c-.7.2-1.9.2-2.5 0-.7-.3-.2-.5 1.2-.5s1.9.2 1.3.5zm2.7 2.4c1.3.9 1.2 1-.2.5-1.3-.4-1.5-.1-1.1 1.1.5 1.2.3 1.4-.7.8-.9-.5-1.1-.4-.6.3.5.8.1 1-1 .5-1.1-.4-1.3-.8-.6-1.1.7-.2 1.2-1 1.2-1.8 0-1.7 1-1.8 3-.3zm1.8 7c-2.9 2.2-3.7 1.5-1.3-1.1 1.7-1.8 1.7-2 .2-1.4-.9.3-1.7 1.1-1.7 1.6 0 .6-.8.4-1.7-.3-1.1-1-1.4-1-.9-.2.4.8.2 1.3-.4 1.3-.7 0-1-.6-.7-1.3.2-.6.9-1.2 1.5-1.2s1.7-.6 2.3-1.2c1-1 1.7-.9 3.1.4 1.9 1.7 1.8 1.8-.4 3.4zm84-2.6c-.3.3-.9-.2-1.2-1.2-.6-1.4-.5-1.5.5-.6.7.7 1 1.5.7 1.8zM72 116c0 .5-.2 1-.4 1-.3 0-.8-.5-1.1-1-.3-.6-.1-1 .4-1 .6 0 1.1.4 1.1 1zm49.5.4c2.2-1.5 2.6-1.5 4 0 1 .9 1.2 1.6.5 1.6-.6 0-.8.5-.4 1.2.5.8.2.9-1 .5-1.3-.5-1.6-.3-1.3 1.1.2.9-.3 3-1 4.5-1.1 2.1-1.7 2.6-2.7 1.8-.7-.6-1.7-.7-2.2-.3-.5.4.1-.4 1.3-1.8 1.9-2.2 2-2.7.8-4.4-.8-1-1.8-1.5-2.3-1.2-.5.3-.7-.6-.4-2.1.4-2.1.6-2.3 1.4-.9.8 1.5 1.1 1.5 3.3 0z"/><path d="M120.4 75.8c.4.3 1.4.7 2.2.8.9.1 1.3 0 1-.4-.4-.3-1.4-.7-2.2-.8-.9-.1-1.3 0-1 .4zM121.6 117.9c-.4.5.3.7 1.4.4 2.3-.6 2.6-1.3.6-1.3-.8 0-1.7.4-2 .9zM119.5 124.9c-.3.5-.2 1.2.3 1.5.5.3.9-.1.9-.9 0-1.7-.3-1.9-1.2-.6zM55.5 63c.4.7.2 1.5-.5 2-.9.5-.8.8.2 1.3 1.7.6 2.2-2.9.6-3.9-.7-.5-.8-.2-.3.6zM53 68.1c0 .5.5.7 1 .4.6-.3 1-.8 1-1.1 0-.2-.4-.4-1-.4-.5 0-1 .5-1 1.1zM55.7 68.7c-1 .9-.9 2.3.1 2.3.5 0 .9-.7.9-1.5 0-1.7-.1-1.8-1-.8zM79.6 69.5c.4.8.8 1.5 1 1.5.2 0 .4-.7.4-1.5s-.4-1.5-1-1.5c-.5 0-.7.7-.4 1.5zM173.4 69.1c-.4.7-.3.9.4.5.5-.3 1.2 0 1.5.6.3 1 .7 1 2-.1 1.3-1 1.7-1 1.7-.1 0 1 .3 1 1.4.1 1-.9 1.6-.9 2.1-.1s1.1.8 2.1-.1c1-.8 1.4-.8 1.4 0 0 .6.9 1.1 2 1.1s2-.5 2-1.1c0-.5-.5-.7-1-.4-.6.4-1.6.3-2.3-.2-1.4-1.1-8.3-1.1-9.3 0-.4.4-1.3.2-2-.4-.8-.7-1.4-.6-2 .2zM54 75c.6 1.1 1.3 2 1.6 2 .2 0 0-.9-.6-2s-1.3-2-1.6-2c-.2 0 0 .9.6 2zM154 76.5c-.7.9-1 1.8-.6 2.2.3.3.6.1.6-.7 0-1 .4-1 1.8.1 1.6 1.3 1.6 1.3.2-.5-1.4-1.8-1.3-1.9.3-1.3 1 .4 2.1.7 2.3.7.3 0 .2.5-.2 1.2-.5.7-.3.8.6.3 1-.6.9-1.1-.5-2.2-2.4-1.7-3-1.6-4.5.2zM185.5 78.9c-.3.5-.2 1.2.3 1.5.5.3.9-.1.9-.9 0-1.7-.3-1.9-1.2-.6zM163.3 80.5c0 .8.4 1.2.9.9.4-.3.8-.9.8-1.5 0-.5-.4-.9-.8-.9-.5 0-.9.7-.9 1.5zM188.1 80.6c0 1.1.3 1.4.6.6.3-.7.2-1.6-.1-1.9-.3-.4-.6.2-.5 1.3zM55.4 80.8c.3.5 0 1.3-.6 1.5-.8.3-.6.6.5.6 1.9.1 2.3-1.4.5-2.5-.6-.4-.8-.3-.4.4zM51 81.9c0 .6.4 1.3 1 1.6.6.3.7-.1.4-.9-.7-1.8-1.4-2.1-1.4-.7zM149 84.1c0 .5.5.7 1 .4.6-.3 1-.8 1-1.1 0-.2-.4-.4-1-.4-.5 0-1 .5-1 1.1zM187.3 85.5c0 .8.4 1.2.9.9.5-.3.6-1 .3-1.5-.9-1.3-1.2-1.1-1.2.6zM52.4 86.1c-.3.6-.1 1.6.5 2.2.9.9 1 .7.5-.7-.6-1.5-.4-1.7.6-1.1.9.5 1.1.4.6-.3-.9-1.5-1.3-1.5-2.2-.1zM94.5 85.7c1.3 1 1.3 2.3 0 4.3-.7 1.3-.6 1.3.7.2 1.9-1.5 1.7-4.4-.3-5-.9-.2-1 0-.4.5zM175.4 86.1c-.3.6-.2 1.5.3 2s.9.1.9-1.1c0-2.3-.2-2.4-1.2-.9zM189.1 88.6c0 1.1.3 1.4.6.6.3-.7.2-1.6-.1-1.9-.3-.4-.6.2-.5 1.3zM51 89.9c0 .6.4 1.3 1 1.6.6.3.7-.1.4-.9-.7-1.8-1.4-2.1-1.4-.7zM183.9 90.7c-1.3 1.6-1.2 1.7.4.4 1.6-1.3 2.1-2.1 1.3-2.1-.2 0-1 .8-1.7 1.7zM187.3 90.9c0 1.1.5 1.8.9 1.5.4-.3.5-1.1.1-1.9-.7-2.1-1.2-1.9-1 .4zM54.8 90.7c.6.2.9 1 .6 1.5-.4.7-.2.8.5.4 1.3-.9.5-2.6-1.2-2.5-.9 0-.8.2.1.6zM95.7 91.7c-.4.3-.7 1.1-.7 1.7 0 .6.5.5 1.2-.2.6-.6.9-1.4.7-1.7-.3-.3-.9-.2-1.2.2zM52.1 94.8c-.7 1.4-.6 1.9.4 1.9.7 0 1.1-.7.7-1.5-.4-1.1-.1-1.3.8-.7.9.5 1.1.4.6-.3-1-1.6-1.4-1.5-2.5.6zM189.3 94.5c0 .8.4 1.2.9.9.5-.3.6-1 .3-1.5-.9-1.3-1.2-1.1-1.2.6zM161.5 96c.3.5.8 1 1.1 1 .2 0 .4-.5.4-1 0-.6-.5-1-1.1-1-.5 0-.7.4-.4 1zM187.7 97.1c.7.7 1.5 1 1.8.7.3-.3-.2-.9-1.2-1.2-1.4-.6-1.5-.5-.6.5zM92 98.5c-.7.9-1.1 1.7-.9 2 .3.2 1-.5 1.7-1.5 1.4-2.4 1-2.6-.8-.5zM51.6 100.1c.3.5 1 .6 1.6.3.8-.5.9-.1.5 1s-.3 1.5.4 1.1c1.4-1 .6-2.8-1.4-3.1-.9-.1-1.5.2-1.1.7zM189 100.5c0 .8.2 1.5.4 1.5s.6-.7 1-1.5c.3-.8.1-1.5-.4-1.5-.6 0-1 .7-1 1.5zM49.7 102.5c-.4.8-.3 1.6.1 1.9.4.3.9-.4.9-1.5.2-2.3-.3-2.5-1-.4zM73 102c0 .5.5 1 1.1 1 .5 0 .7-.5.4-1-.3-.6-.8-1-1.1-1-.2 0-.4.4-.4 1zM162.6 101.9c-.4.5-.2 1.2.3 1.5.5.4 1.2.2 1.5-.3.4-.5.2-1.2-.3-1.5-.5-.4-1.2-.2-1.5.3zM93.8 103.2c.5.5 1.6.8 2.3.6.8-.3.3-.7-1-1.1-1.7-.4-2.1-.3-1.3.5zM186 104.2c0 .4.4.8.9.8.6 0 1.2-.4 1.5-.8.3-.5-.1-.9-.9-.9s-1.5.4-1.5.9zM55 106c0 .5.5 1 1 1 .6 0 1-.5 1-1 0-.6-.4-1-1-1-.5 0-1 .4-1 1zM93 106.1c0 .5.5.7 1 .4.6-.3 1-.8 1-1.1 0-.2-.4-.4-1-.4-.5 0-1 .5-1 1.1zM149.9 105.4c-.1.3-.2.9-.3 1.3-.1.5-.5 1.3-.9 2-.4.6-.3 1.4.3 1.8.5.3 1.1.4 1.1.1.1-.3.2-.9.3-1.4.1-.4.5-1.2.9-1.9.4-.6.3-1.4-.3-1.8-.5-.3-1.1-.4-1.1-.1zM162 106.2c0 .4.4.8.9.8.6 0 1.2-.4 1.5-.8.3-.5-.1-.9-.9-.9s-1.5.4-1.5.9zM52.1 108.4c-.8 1-.9 1.6-.1 2.1.6.4.9.1.8-.7-.2-.7.3-1.2 1-1 .8.1 1.1-.2.7-.8-.8-1.3-1-1.3-2.4.4zM94 108c-1.2.7-1 .9.7.7 1.2 0 1.9-.5 1.7-.9-.6-1-.6-1-2.4.2zM164 108c-.9.6-1 1-.3 1 .6 0 1.5-.5 1.8-1 .8-1.2.4-1.2-1.5 0zM54.6 111.5c.4.8 1.1 1.5 1.6 1.5.6 0 .5-.6-.2-1.5-.7-.8-1.4-1.5-1.6-1.5-.2 0-.1.7.2 1.5zM91.5 113.9c-.3.5-.2 1.2.3 1.5.5.3.9-.1.9-.9 0-1.7-.3-1.9-1.2-.6zM183.6 113.8c-.3.5.1.9.9.9s1.2-.4.9-.9c-.3-.4-.7-.8-.9-.8-.2 0-.6.4-.9.8zM49.6 115.3c.3 1 .9 1.5 1.2 1.2.3-.3 0-1.1-.7-1.8-1-.9-1.1-.8-.5.6zM55 116c-.9.6-1 1-.3 1 .6 0 1.5-.5 1.8-1 .8-1.2.4-1.2-1.5 0zM95.9 117.7c-1.3 1.6-1.2 1.7.4.4.9-.7 1.7-1.5 1.7-1.7 0-.8-.8-.3-2.1 1.3zM187 118.4c0 .2.8 1 1.8 1.7 1.5 1.3 1.6 1.2.3-.4s-2.1-2.1-2.1-1.3zM52 120c0 .5.5 1 1.1 1 .5 0 .7-.5.4-1-.3-.6-.8-1-1.1-1-.2 0-.4.4-.4 1zM186.7 122.2c.6.7.9 2.1.8 3-.2 1 0 2 .4 2.2.3.2.7-.9.7-2.4.1-1.7-.4-3.1-1.4-3.5-1.1-.4-1.2-.2-.5.7zM89.6 122.8c-.2.4-.1 1.4.4 2.2.7 1.1.9.9.7-.8-.1-2.4-.3-2.6-1.1-1.4zM71.5 124c-.3.5-.1 1 .4 1 .6 0 1.1-.5 1.1-1 0-.6-.2-1-.4-1-.3 0-.8.4-1.1 1zM183.6 125.3c.3 1 .9 1.5 1.2 1.2.3-.3 0-1.1-.7-1.8-1-.9-1.1-.8-.5.6zM96.4 127.2c-.4.7-.4 1 .1.6.4-.4 1.5-.2 2.3.5 1.2 1 1.6.9 2-.2.3-1 .6-1 1.2-.1.5.9.9.8 1.3-.3.6-1.5-1.5-1.8-2.9-.4-.4.4-1.3.2-2-.4-.9-.7-1.4-.6-2 .3zM130.7 126.7c-.4.3-.7 1.3-.7 2.2.1 1.4.2 1.3 1.1-.2.5-.9 1.4-1.7 1.9-1.7s.7.8.4 1.7c-.4 1.4-.3 1.5.4.5.5-.8 1.2-1.3 1.6-1.3.3.1.6-.2.6-.6.1-.9-4.5-1.5-5.3-.6zM148.6 127.3c.3 1 .9 1.5 1.2 1.2.3-.3 0-1.1-.7-1.8-1-.9-1.1-.8-.5.6zM92.7 128.1c.7.7 1.5 1 1.8.7.3-.3-.2-.9-1.2-1.2-1.4-.6-1.5-.5-.6.5zM137.6 128.7c-.6 1.4-.5 1.5.5.6.7-.7 1-1.5.7-1.8-.3-.3-.9.2-1.2 1.2zM95.9 130.7c-1.3 1.6-1.2 1.7.4.4.9-.7 1.7-1.5 1.7-1.7 0-.8-.8-.3-2.1 1.3zM187.5 130c-.3.5-.1 1 .4 1 .6 0 1.1-.5 1.1-1 0-.6-.2-1-.4-1-.3 0-.8.4-1.1 1z"/><path d="M35.6 134.2c-.9 1.2-1.6 2.8-1.6 3.5 0 .7-.5 1.3-1.1 1.3-.6 0-.9.6-.6 1.4.7 1.6-4.1 6.9-5.4 6-.5-.3-.9 0-.9.7s-.2 1-.5.7c-1.1-1.1.8-3.9 2.2-3.3 1.1.3 1.3.1 1-1-.4-.8 0-2.1.8-2.8.7-.8 1-1.9.5-2.7-.6-.9-1.6-.7-4.4 1.2-2 1.4-3.4 2.7-3.1 2.9.2.3-.5 1.1-1.7 1.8-1.6 1-1.9 1-1.2-.1.5-.7.9-1.8 1-2.3 1.4-8.2 1.3-8.4-1.6-6.5-.8.5-1.1 1-.6 1 .5 0 .3.7-.4 1.5s-.9 1.5-.6 1.5c.4 0 .1 1-.6 2.2-.7 1.3-1.2 2.6-1.1 2.9.1.3-.2 2.1-.6 4.1-.7 3-.6 3.7.9 4.1 1 .2 2.2-.4 2.9-1.6 1-1.5 1.5-1.7 2.1-.7 1.1 1.8.1 4.2-1.4 3.3-.6-.3-.8-.3-.4.2.4.4.2 1.5-.4 2.4-1 1.3-.9 1.3.7-.1 1.1-.9 2.3-1.6 2.7-1.5.3.1 1-.2 1.5-.7.5-.5.2-.6-.6-.1-.9.5-1.2.4-.8-.2 1.5-2.4 7.2 0 6.2 2.6-.5 1.2-.4 1.3.6.4 1-1 .9-1.6-.1-2.8-1.7-2-.8-2.8 2.4-1.9 1.6.4 2.3 1.1 1.9 1.8-.4.7-.1.6.9-.1.8-.7 1.8-1 2.1-.6.4.3.7.1.7-.6s.6-1.1 1.3-.8c.6.2 1.8-.3 2.5-1.2.7-.9 1.1-1.2 1-.6-.3 1.7 1.3 5.5 2.3 5.5.6 0 .7.5.4 1-.4.6-1.1.7-1.7.4-.6-.4-.8-.2-.4.4.3.5.3 1.2-.1 1.5-.5.2-.2.2.5 0 1-.2 1.1.3.6 2-1.2 3.8-1 4.9 1.3 5.8 1.8.7 2.1.5 1.8-1.2-.3-1.3.2-1.9 1.3-1.9 1.3 0 1.4-.2.4-.9-1.1-.7-1.1-1.1.2-2.4.9-.8 1.6-2 1.6-2.6 0-.6.4-1.1 1-1.1.5 0 .8.6.6 1.2-.1.7-.1 1 .2.5.2-.4 1.3-1.2 2.4-1.8 1.8-1 2-.9 1.5.5-.4 1-.3 1.5.3 1.1.6-.4 1-1.2.9-1.8-.4-3.3.1-3.8 2.3-2.3 1.7 1.2 2.5 1.3 3.6.3 1.3-1 1.4-.8.8 1-.4 1.3-.2 2.4.5 2.9.8.4.9.3.5-.4-.8-1.4 1-5.2 2.5-5.2.6 0 .8.4.4.9-.9 1.6 1.5 2.4 3.1 1 1.3-1 1.7-1 2.4.1.5.8.6 1.8.3 2.4-.3.5-.1.6.5.2 2-1.2-.5-4.8-2.9-4.1-1 .4-1.9.2-1.9-.3 0-1.7 2.5-2 4.4-.6 1.5 1.1 2.2 1.1 4.1-.2 2.1-1.4 2.5-1.3 4.6.8 1.2 1.3 1.9 1.6 1.5.8-.7-1.3-.6-1.3.6 0 1.6 1.8 4.4 2.4 5.3 1 .3-.5 0-.7-.8-.4-.8.3-1.8 0-2.3-.7-.5-.8-.3-1 .6-.4.7.4 1.6.2 2.1-.6.6-1 .9-1.1.9-.2 0 .7.5 1.3 1.1 1.3.5 0 .7-.6.3-1.3-.6-.9-.4-.9.8.1 1.6 1.3 4.8.7 4.8-1 0-.6.6-.6 1.4.2.8.6 1.2 1.9.9 2.8-.4 1.4-.3 1.5.5.2.7-.9.8-1.8.1-2.6-.6-.8-.6-1.4 0-1.8.5-.3 1.1-.1 1.3.4.2.6 1.3 1.2 2.6 1.3 2.3.1 2.5 1.8.2 2.5-.9.3-1 0-.4-.9.7-1.2.5-1.2-.9 0-2.6 2.1-.9 3.4 2.1 1.5 2.4-1.6 2.6-1.6 3.9.2.7 1 1.3 1.3 1.3.6 0-.6.8-.9 1.8-.6 1.4.5 1.4.4.2-.4-.8-.6-1.8-.8-2.3-.5-.5.3-.8 0-.5-.7.2-.7 1.5-1.5 2.9-1.7 1.6-.2 2 0 1.1.6-1.1.7-1.1.9.2 1.4.9.4 1.6.2 1.6-.4 0-.6.5-.7 1-.4.6.3 1 0 1.1-.7 0-.7.6 0 1.3 1.6.8 1.8 1.6 2.4 2 1.7.4-.6.4-1.6 0-2.3-.4-.7-.3-.8.4-.4.6.4 2.1.2 3.2-.4 1.4-.8 2-.8 2 0 0 .6.4.9.8.6.5-.3 2 .1 3.5.9 2.2 1.1 2.6 1.1 3.1-.1.3-.8.3-2 .1-2.6-.3-.8.5-1.3 2.2-1.4 4.3-.2 7.3-.8 6.8-1.3-.3-.2 0-1 .6-1.8.9-1 .5-1.3-2-1.3-1.7 0-3.1.4-3.1.9 0 .9-8.3-.3-10.2-1.5-.6-.4-.8-.2-.5.3.4.6 0 1.4-.8 1.7-.8.3-1.9.7-2.3.8-.4.2-.7-.4-.8-1.2-.2-3-.4-3.2-1.7-2.1-.8.6-1.7.8-2 .4-.4-.3-.7 0-.7.7s-.2 1.1-.5.8c-.7-.7 2.6-7.8 3.4-7.4.3.2.6-.9.7-2.4.1-1.6-.5-3.1-1.2-3.4-.8-.3-1.4-.1-1.4.5s-.5.7-1.2.3c-.7-.4-.8-.3-.4.5.9 1.4-.2 5.3-1.4 4.6-.4-.3-.6.3-.3 1.3.2 1.1-.5 2.8-1.9 4.1-2.8 2.7-8.8 5.4-8.8 4.1 0-.6-.6-.9-1.2-.8-.7.2-1.2-.3-1-1 .3-1.6-4-1.6-5.6 0-1 1-1.5 1-2.2-.2-.7-1.2-1.5-1.1-5.3.8-5.5 2.7-6.7 2.8-6.2.2.5-2.5-3-2.7-5.9-.5-2.5 1.9-3.1 1.9-5 0-1.4-1.4-1.8-1.4-4.2.2-2.4 1.6-2.7 1.6-3.8.1-1.7-2.4-9.3-2.1-12 .3-2.6 2.5-3.5 2.4-2.9-.2.5-1.8.2-2-2.6-1.6-1.7.3-3.1.1-3.1-.4 0-.6-.4-.8-.9-.5-.5.4-1.2 0-1.4-.6-.3-.8-.6-.6-.6.5-.1.9-.4 1.6-.8 1.5-.5-.1-1.7.3-2.9.9-1.1.6-2.6.8-3.3.4-1-.6-.9-1 .3-1.4.9-.4 1.6-1.5 1.6-2.6s.5-2.3 1.1-2.6c.6-.4.8-1.3.5-2-.3-.8 0-1.6.7-1.9.9-.5.9-.7-.1-1.2-.6-.3-1-1-.7-1.4 1.3-2-1.5-1.8-2.9.2zM65 152.3c0 .4-.4.6-.9.2-.5-.3-1.2-.1-1.6.4-.8 1.4-3.2.3-3.2-1.4 0-.8.4-1.2.9-.9.4.3.8 0 .8-.5 0-.7.7-.7 2 .1 1.1.7 2 1.6 2 2.1zm68-.2c0 .5-.4.9-.8.9-.5 0-.9-.7-.9-1.5s.4-1.2.9-.9c.4.3.8.9.8 1.5zm-87.9.2c-.1 1.2-1.5.9-1.9-.4-.3-.6.1-1 .8-.8.6.3 1.1.8 1.1 1.2zm9.2 2.4c-2.3 1.8-3.5.5-1.5-1.5 1.1-1.2 2-1.4 2.4-.8.4.6 0 1.6-.9 2.3zM223 134.1c-1.4 1-2.1 1.9-1.7 1.9.4 0 .2 1-.5 2.2-.7 1.3-1.1 2.7-1 3.2.2.5-.5.6-1.4.2-1.4-.5-1.5-.4-.4.9 1.6 1.9.6 3.2-1.3 1.7-.9-.8-1.7-.8-2.7 0-1.2.8-1.2.9.3.4.9-.3 1.7-.1 1.7.4 0 .6-.9 1-2 1s-2 .5-2 1.1c0 .8-.6.7-1.7-.2-.9-.8-1.4-.9-1-.3.4.7 0 1.5-.9 1.8-2.3.9-3.6.7-2.9-.4.3-.6.1-1-.5-1s-.9-.4-.5-.9c1.2-2-1.3-1.9-5.1.3-4 2.3-4.1 2.3-5.6.4-1.4-1.7-1.9-1.8-3.9-.6-1.3.7-2.7 1.7-3 2.2-.9 1.1-2.2-1.1-1.4-2.4.8-1.3-2.1-1.3-4.7.1-1.5.8-1.9.8-1.4 0 .4-.7-.1-1.1-1.3-1.1-1.1 0-2.3.5-2.6 1-.4.6-1.1.8-1.6.4-.5-.3-.8 0-.7.6.4 1.7-3 2.1-5.3.7-1.6-1-1.6-1.2-.1-2.5.9-.7 1.1-1.1.5-.7-.7.3-1.3.1-1.3-.4 0-.6-.5-1.1-1.1-1.1-.5 0-.8.4-.5.9.7 1-4.9 2.2-7.8 1.7-1.1-.1-2.2-.9-2.4-1.6-.3-.8.1-1.1 1.1-.7 1.1.4 1.3 0 1-1.4-.3-1.1 0-1.9.6-1.9.7 0 .9.5.5 1.2-.5.7-.3.8.7.2 1.9-1.2 3.2-1.2 4.7-.1.8.6 1.2.5 1.2-.4 0-1.1.2-1.1 1 .1.7 1.1 1 1.1 1 .2 0-.7.4-1.1.9-.8 1.2.7 4.5-1.9 3.8-3-.6-1-15.9-1-17.4-.1-.5.3-1 2-1.1 3.7-.2 2.1-1.4 4.3-3.5 6.3-3.1 3.1-3.1 3.2-.9 3.5 1.2.2 2 .8 1.7 1.3-.9 1.3.9 1.1 2.3-.3 1.8-1.8 9.2-1.9 8.5-.1-.3.7-.1 1.3.3 1.4.5 0 1.7.2 2.6.4 1 .2 2.3-.4 2.8-1.3.9-1.4 1-1.2.4.7-.4 1.5-.2 2.1.4 1.7.6-.3 1.2-.1 1.5.6.2.7.2.2 0-1.2-.3-2.4-.3-2.4 1.2-.6 1.3 1.8 2 1.5 1.6-.7-.1-.4.9-.2 2.1.4 2.2 1.2 2.2 1.1.8-.6-1.3-1.7-1.3-1.8 0-1 2.1 1.3 4 1.5 4 .4 0-.5.7-.9 1.5-.9s1.5-.6 1.6-1.3c.1-.6.4-.1.8 1.3 1 3.4.2 4.5-1.6 2.3-1.3-1.6-1.3-1.6-.3.5.9 1.9 1.4 2.1 2.6 1.1.8-.7 1.2-1.9.9-2.7-.4-1.2-.3-1.2.9-.3 1.4 1.2 4.6.5 4.6-1 0-.4.7-.6 1.5-.3.8.4 1.5 1.1 1.5 1.6 0 .6-.6.8-1.3.5-.7-.3-2.2.2-3.2 1-1.2.9-1.4 1.3-.5 1.1.8-.3 2.1.2 2.8 1.1 1.1 1.4 1.1 1.4.5-.3-.4-1.3-.3-1.7.5-1.2.6.3 1.3-.3 1.7-1.4.4-1.1 1.1-1.8 1.6-1.4.6.3.5 1.2-.3 2.2-1.1 1.5-1.1 1.5.4.4.9-.7 1.8-.9 2-.5.3.4.3.2.2-.4-.5-2 3.2-3.5 4.8-2 .7.8 2.1 1.3 3.1 1.1 1.4-.2 1.6.1.7 1.1-.8.9-.6 1.4.5 1.9.9.3 1.3.2 1-.4-.3-.6-.1-1 .5-1s.8-.4.5-1c-.3-.6.1-.7 1-.4 1.3.5 1.3.9.3 2.3-1.2 1.4-1.1 1.4.4.3 1-.8 1.4-2 1.1-2.9-.5-1.2-.2-1.5.9-1 1 .3 1.9 0 2.2-.9.9-2.3 2.6-1.6 3.7 1.6.6 1.6 1.6 3 2.1 3 .6 0 .5-.6-.2-1.5-1.1-1.3-1-1.4.3-.9.8.3 2.5 0 3.7-.6 2.9-1.5 4.8.1 2.4 2.1-1.6 1.2-1.7 1.2-1.1-.4.6-1.5.4-1.6-1.3-.7-1.1.6-2 1.4-2 1.7 0 .3.3.3.7 0 .3-.4 1.2-.2 1.8.3.9.7 1.6.6 2.4-.4.7-.8 2-1.2 2.9-1 1.5.5 1.5.4 0-.6-1-.6-1.8-1.6-1.8-2.2 0-.6.8-.4 1.8.5 1.5 1.3 2.1 1.4 3.1.4 1-.9 1-.7 0 1-.8 1.3-1.7 2.3-2.1 2.3-.5 0-.8.5-.8 1.1 0 .5.4.8.9.5.5-.4.8.2.6 1.1-.2 1-.4 1.8-.5 1.8-.1 0-.3 1.2-.5 2.7-.4 3.3.8 4.4 2.5 2.3.7-.8 1.7-1.2 2.4-.8.6.4.5-.1-.3-1-1.2-1.5-1.1-1.7.5-1.7s1.7-.2.4-1c-1.3-.8-1.2-1 .3-1 .9 0 1.7-.5 1.7-1.1 0-.5-.6-.7-1.2-.4-.7.4.1-.7 1.9-2.3 1.7-1.7 2.8-3.4 2.5-3.8-.4-.4.1-.4 1.1-.1 1 .4 1.6.3 1.3-.1-.3-.5.4-1.6 1.5-2.5 2.5-2.2 2.4-3.7-.1-3.7-1.1 0-2 .4-2 1 0 .5-.9 1-2.1 1-1.1 0-1.7.4-1.4 1 .3.5.1 1-.4 1-1 0-1.5-1.4-1.2-3.3.2-1.1-2.4-.8-3.8.5-1.1 1-1.3 1-.7 0 1.1-1.8-4.4-1.6-7.2.4-2.2 1.5-4.2 1.2-4.2-.7 0-.5.6-.9 1.3-.9.7 0 1.4-.8 1.5-1.8.5-4.3 1.1-5.7 2.3-5.4 1.1.3 1.1.1.2-.9-.6-.6-.9-1.7-.7-2.4.9-2.2-1-2.4-3.6-.4z"/><path d="M204 140.6c-1.3 1.4-.2 2.4 2.6 2.4 3.5 0 5.3-1 4.7-2.6-.6-1.7-5.9-1.5-7.3.2zM29.5 142c-.3.5-.1 1 .4 1 .6 0 1.1-.5 1.1-1 0-.6-.2-1-.4-1-.3 0-.8.4-1.1 1zM160.6 142.2c.3.5 1 .6 1.5.3 1.3-.9 1.1-1.2-.6-1.2-.8 0-1.2.4-.9.9zM141.5 152c.2 2.7 1 3.3 1.2 1 .1-1.1-.2-2.2-.6-2.4-.4-.3-.7.4-.6 1.4zM135 152.1c0 .5.5.7 1 .4.6-.3 1-.8 1-1.1 0-.2-.4-.4-1-.4-.5 0-1 .5-1 1.1zM153.6 152.5c-.3.8-.1 1.5.4 1.5.6 0 1-.7 1-1.5s-.2-1.5-.4-1.5-.6.7-1 1.5zM30.9 153.6c.6 1.2.7 2.4.4 2.8-.3.3-.1.6.5.6 1.6 0 1.5-1.2-.4-3.6-1.5-1.8-1.5-1.8-.5.2zM37.6 152.8c-.4.7-1.2 1-1.7.7-1.5-1-1 .2.8 1.6 1.4 1.2 1.5 1.2.9 0-.7-1-.3-1.2 1.3-.6 1.3.4 2.1.2 2.1-.5 0-.6-.4-.9-.9-.6-.5.4-1.1.1-1.3-.6-.3-.9-.6-.9-1.2 0zM77.3 153.8c0 .7.7 1 1.4.7.8-.3 1.7-.5 1.9-.5.2 0 .4-.4.4-.8s-.8-.8-1.8-.8-1.9.6-1.9 1.4zM95.6 153.3c-1.6 1.2-1.6 1.3.2 1.3 1 0 1.9-.6 1.9-1.3 0-.7-.1-1.3-.2-1.3s-.9.6-1.9 1.3zM199.3 153.8c.2 1.2.6 2.4 1 2.8.3.4.4-.4.2-1.6-.6-3-1.6-4-1.2-1.2zM121.9 155.3c-.9 2-.9 2 .4.4.8-.9 1.7-1.7 2-1.7.4 0 .4.8.1 1.7-.4 1.3-.3 1.4.3.5.6-.7 1.5-1.2 2-1 .6.2 1.3-.1 1.5-.6.1-.5-.9-1-2.5-1.2-2-.2-3 .3-3.8 1.9zM157.5 154.1c-.4.6-.5 1.2-.2 1.5.2.3.7-.2 1-1.1.7-1.7.1-2-.8-.4zM89.9 155.7c-1.3 1.7-1.3 1.7.6.3 1.1-.8 2.2-1.6 2.4-1.7.2-.2 0-.3-.6-.3s-1.7.8-2.4 1.7zM115.4 155.6c-1.8 1.4-1.8 1.5.4.4 1.2-.6 2.2-1.3 2.2-1.5 0-.8-.5-.6-2.6 1.1zM178.7 155.3c-.3.8.1 1.4.8 1.4.7 0 1.1-.6.8-1.4-.3-.7-.6-1.3-.8-1.3-.2 0-.5.6-.8 1.3zM239.5 155.3c-1.3 1-1.5 1.6-.6 2.1.7.5 1.5.5 1.8.2.4-.3 0-.6-.7-.6-.9 0-.7-.5.6-1.5 1-.8 1.6-1.5 1.3-1.5-.3 0-1.3.6-2.4 1.3zM81.5 156c.3.5.8 1 1.1 1 .2 0 .4-.5.4-1 0-.6-.5-1-1.1-1-.5 0-.7.4-.4 1zM163.8 155.7c.7.3 1.6.2 1.9-.1.4-.3-.2-.6-1.3-.5-1.1 0-1.4.3-.6.6zM172 156c-.8.5-1 1-.5 1 .6 0 1.7-.5 2.5-1s1.1-1 .5-1c-.5 0-1.7.5-2.5 1zM214.6 156.2c.3.5 1 .6 1.5.3 1.3-.9 1.1-1.2-.6-1.2-.8 0-1.2.4-.9.9zM53.7 159.1c.7.7 1.5 1 1.8.7.3-.3-.2-.9-1.2-1.2-1.4-.6-1.5-.5-.6.5zM80.3 161.7c-1.6.6-1.7 7.9-.2 8.8.6.4.9 0 .7-1.1-.2-1.1.2-1.8.9-1.7.8.2 1.1-.7.9-2.7-.4-3.6-.6-3.9-2.3-3.3zM90 162.7c-1.6 1.9-1.5 7.7.1 6.7.5-.3 1.7 0 2.6.8 1.2.9 1.5 1 .9 0-.4-.7-.1-1.5.9-1.8 1.7-.7 1.2-3.8-1.1-6.1-1.6-1.7-1.7-1.6-3.4.4zm3.8 2.6c.8 1 .6 1.3-.8 1.4-1 .1-2.1-.5-2.4-1.3-.7-1.8 1.8-1.9 3.2-.1zM147 163c-.8 1.5-.8 2 .1 2 .6 0 .9.9.6 2-.3 1.3 0 2 .8 2s1.3-.8 1.3-1.8c0-.9.2-2.4.6-3.3 1.1-2.5-2.1-3.3-3.4-.9zM166.4 162.4c-1.4 1-2 2.4-1.9 4 .4 3.6 1.5 5 2.8 3.7 1.5-1.5 3-1.4 2.1.1-.4.8-.3 1 .2.5 1.1-1 1.4-8.8.3-8.1-.4.2-.9 0-1.1-.6-.2-.6-1.1-.4-2.4.4zm2.6 3.1c0 .8-.7 1.5-1.5 1.5-.9 0-1.2-.6-.9-1.5.4-.8 1-1.5 1.5-1.5s.9.7.9 1.5zM112.5 165.5c0 2.3.5 3.5 1.4 3.5.8 0 1.1-.6.7-1.8-.6-1.6-.5-1.6.8 0 1.5 2.1 3.6 2.4 3.6.5 0-2.5-1.3-5.7-2.2-5.7-.5 0-.6.4-.3 1 .3.5.2 1-.4 1-.5 0-1.3-.5-1.6-1-1.2-1.9-2-1-2 2.5zM124 163.1c0 .5.4.8.9.4.5-.3 1.7.3 2.7 1.2 1.6 1.7 1.6 1.8-.6 2.3-1.3.3-2.5 1-2.7 1.6-.5 1.4 3.7 1.5 5.1.1 1.5-1.7 1.8-3.7.5-3.7-.5 0-.8-.4-.5-.9.3-.5-.1-1.2-1-1.5-2.4-.9-4.4-.7-4.4.5zM136.3 165.5c-1.2 3.7-.6 4.4 1.6 2.2 1.1-1 1.2-.9.6.2s-.4 1.3.9.8c1-.4 2-.7 2.2-.7.3 0-.3-1.4-1.3-3-.9-1.7-2-3-2.3-3-.4 0-1.1 1.6-1.7 3.5zM177.6 162.8c-.9 1.5-.4 7.2.6 6.6.5-.3.6-1 .3-1.5-.4-.5 0-.9.8-.9s1.9 1 2.5 2.2c.9 2 1.1 1.7 1.1-2.5.1-2.7-.4-4.7-1-4.7-.5 0-.8.4-.4.9.3.5.1 1.2-.4 1.6-.5.3-1.4-.2-1.9-1.1-.6-1.1-1.2-1.3-1.6-.6zM105 165c0 2.4-.9 2.6-2.5.3-1.1-1.5-1.2-1.4-1.2 1 0 1.6.5 2.7 1.3 2.7s1.4.6 1.4 1.2c0 .7.6.2 1.3-1.2 1.5-2.9 1.8-6 .5-6-.4 0-.8.9-.8 2z"/><path d="M124.5 165.1c-.9 1.4-.2 2 1.4 1 .8-.6.9-1.1.3-1.5-.6-.3-1.4-.1-1.7.5z"/><path d="M57.9 167.1c-.5 1.1-.7 1.9-.3 1.9.3 0 0 .8-.7 1.7-1 1.1-1 1.4-.1.9.6-.4 1.2-.3 1.2.1 0 .5-.6 1.5-1.2 2.2-.7.8-.8 1.1-.3.8.7-.4 1 2.7.9 9.1-.1 10.6.7 13.7 3.6 12.9 1.2-.3 1.7 0 1.4.8-.3.7 0 1.6.7 2.1.7.4 1 .3.5-.4-1.1-1.8 2.3-.7 3.7 1.3 1 1.3 1.6 1.5 2.1.6.4-.6 1.3-.8 1.9-.5.8.4.7.2-.1-.7-1.1-1.2-1.4-1.2-2.3.1-.9 1.2-1 1.2-.7.1.6-2.1 2.3-2.4 4-.8 1.1 1.1 1.6 1.1 2.5.2.7-.7 1-1.5.7-1.7-.2-.3.2-.5.9-.5.8 0 1.4.6 1.4 1.3 0 .7-.4 1.1-.8.8-.4-.2-1 0-1.3.5-.4.5-.2 1.2.3 1.5.5.4 1.2.2 1.5-.2.3-.5 2.3-.8 4.5-.7 2.2.1 3.8-.1 3.6-.5-.3-.4-1.8-.6-3.5-.5-1.6.1-3-.1-3-.6 0-.4 1.7-.6 3.7-.4 2.1.2 4.4-.2 5.2-.8 1.2-.9 1.3-.9.7 0-.4.8-.1 1.3.9 1.3.9 0 1.4.4 1.1.8-.2.4.6.8 2 .8 1.3 0 2.4-.4 2.4-.9s-.7-.6-1.6-.3c-.8.3-1.2.2-.9-.4.8-1.2 1.6-1.2 3.4-.1 1 .7 1.2 1.4.5 2.3-.5.8-.2.6.8-.4 1.8-2 3.3-2.4 2.2-.6-.4.7-.3.8.5.4.8-.6.9-1.2.2-2-.8-.9-.7-1.3.4-1.3.8 0 1.2.3 1 .6-.2.4.3 1.5 1.1 2.6.8 1 1.4 1.3 1.4.6 0-.7.5-.9 1.2-.5s.8.3.4-.5c-.4-.6-1.2-.9-1.7-.6-.5.4-.9.2-.9-.3 0-.6 1.7-.8 3.7-.7 2.1.2 4.4-.1 5.2-.8 1.2-.9 1.3-.9.7 0-.4.8-.1 1.3.9 1.3s1.3.5.9 1.2.2.5 1.3-.5c2-1.7 5.3-1.4 5.3.4 0 .6.6.4 1.4-.3.8-.7 1.2-1.6 1-1.9-.2-.3.3-.6 1-.6s1.3.6 1.3 1.3c0 .7-.3 1.2-.6 1.1-.3-.1-.7.1-.8.5-.3.7.2 1 1 .7.1-.1 1.3-.2 2.7-.3 1.4-.1 3.5-.7 4.7-1.4 1.7-1 2.4-.9 3.5.2 1.1 1 1.6 1 2.5.1.7-.7 1-1.5.7-1.7-.2-.3.2-.5.9-.5.8 0 1.4.6 1.4 1.3 0 .7-.4 1.1-.8.8-.4-.2-1 0-1.3.5-.4.5-.2 1.2.3 1.5.5.4 1.2.2 1.6-.3.3-.5 1.4-.8 2.5-.6 1.2.2 1.8 0 1.5-.6-.4-.5-1.1-.7-1.6-.4-.5.4-.9.2-.9-.3 0-.6 1.7-.8 3.7-.7 2.1.2 4.2 0 4.9-.6.7-.6 1.5-.4 2.4.5 1 1.3.8 1.5-.9 1.1-1.2-.2-2.1 0-2.1.4 0 .5 1.3.8 2.9.7 1.6 0 2.7-.4 2.5-.7-.6-1.1 2.2-1.8 3.6-.9.7.4.9 1.4.6 2.1-.4.8-.1.6.7-.4 1.6-1.9 3.2-2.4 2.1-.5-.4.7-.3.8.5.4.8-.6.9-1.2.2-2-.8-.9-.7-1.3.4-1.3.8 0 1.2.3 1 .6-.2.4.3 1.5 1.1 2.6.8 1 1.4 1.4 1.4.8 0-.6 1.3-.9 3-.8 1.6.1 2.8-.1 2.5-.5-.3-.4-1.8-.6-3.5-.5-1.6.1-3-.1-3-.6 0-.4 1.7-.6 3.7-.4 2.1.2 4.4-.2 5.2-.8 1.2-.9 1.3-.9.7 0-.4.8-.1 1.3.9 1.3s1.3.5.9 1.2.2.4 1.5-.6c1.7-1.6 2.4-1.7 3.4-.7.9 1 .9 1.1-.3.6-.9-.3-2.1.4-2.9 1.7-1.3 2.2-1.3 2.2.5.7 1-.9 2.7-1.5 3.6-1.4 1 .2 1.5-.2 1.2-1-.3-.7 0-1.6.7-2.1.8-.5 1-.3.4.6-.5.8-.3 1.1.6.8.8-.3 2.3.2 3.3 1.1 1.8 1.5 1.8 1.5.8-.4-.9-1.7-.7-2.1.8-2.1 1 0 1.6.5 1.3 1-.4.6.1.6 1.3.1 1.7-.7 4.6-1.1 9.3-1.4.8-.1 1.1-.8.8-2.1-.3-1.1-.1-2.3.4-2.6.5-.3.8 0 .7.7-.2.6.4 1.4 1.2 1.6.9.3 1.1.1.5-.4-1.5-1.2-1.9-4.7-.4-3.7.8.4 1 .3.5-.5s-1.2-.9-1.9-.2c-.9.7-1.2.3-1.2-1.4 0-2 .3-2.2 2-1.3 1.9 1 1.9 1 .4-.8-2.3-2.8-3.4-4.8-2.1-4 .6.3 1.3.2 1.7-.4.3-.5.1-1-.5-1-1.2 0-.9-2.4.7-6.7.6-1.6.5-1.6-1-.4-1.6 1.3-1.7 1.2-.7-1.3.7-2 .7-2.5-.2-2-.7.5-.9.2-.6-.8 1-2.5-.8-4-5.3-4.3-6.2-.4-7.9.7-7.5 5.1.2 2.5-.1 3.3-1.1 3-.7-.3-1.3-.1-1.3.4 0 .6.8 1 1.8 1 1.4 0 1.5.2.2 1-1.3.9-1.3 1 0 1 .9.1.5.6-1 1.6-2.4 1.4-2.4 1.5-.2.8 2.1-.5 2.3-.4 1.3 1.4-.6 1.1-.7 2.3-.3 2.7.4.5.1.5-.6.1s-1-1.1-.8-1.5c.3-.4-.5-.7-1.7-.6-1.2.1-2.9-.3-3.7-.8-1.2-.9-1.3-.9-.2.3 1.7 2 1.5 2.6-.8 2.6-1.1 0-2-.4-2-.9 0-.4-.5-.5-1.2-.1-1.6 1-29.9 1.1-30.5.1-.2-.4-.9-.4-1.5-.1-1.8 1.1-29.8 1-30.2-.1-.3-.7-.5-.7-.5 0-.1.6-8 .9-21.8.8-23.9-.1-25.4-.2-23.5-1 1.5-.6 1.6-2.4.1-2.1-1.7.4-1.9-2.7-.4-5.6 1-1.8 1-2.8.3-3.2-.7-.5-.8-.2-.3.6.6.9.4 1.1-.4.5-.7-.4-1.1-1.8-.8-3.1.6-3.1-.3-3.6-6.4-3.9-4-.2-5.2.1-6 1.6zm71.9 31.2c.8 1 .6 1.3-.9 1.4-1.9.2-2.5-.8-1.2-2 .8-.9.9-.9 2.1.6zM233 166.1c0 .5.5.7 1 .4.6-.3 1-.8 1-1.1 0-.2-.4-.4-1-.4-.5 0-1 .5-1 1.1z"/><path d="M72 174.5c.2.5.1 1.2 0 1.5-.7 1.9-.7 3.9.1 3.4.5-.3.7-.9.4-1.4-.3-.4.1-1 .7-1.3 1-.4 1-.7 0-1.8-.7-.8-1.3-1-1.2-.4zM186.5 178c-.3.6.1.7.9.4 1.8-.7 2.1-1.4.7-1.4-.6 0-1.3.4-1.6 1zM53 178.7c0 .1.8.7 1.8 1.2 1.3.7 1.9.6 1.9-.2 0-.7-.9-1.3-1.9-1.3-1 0-1.8.1-1.8.3zM51.8 181.2c-.7 1.7 1.5 1.9 2.9.3.4-.4.3-.5-.4-.2-.6.4-1.3.2-1.5-.5-.3-.8-.6-.6-1 .4zM54 184c-.8.5-1 1-.5 1 .6 0 1.7-.5 2.5-1s1.1-1 .5-1c-.5 0-1.7.5-2.5 1zM49.6 186.7c-.6 1.4-.5 1.5.5.6.7-.7 1-1.5.7-1.8-.3-.3-.9.2-1.2 1.2zM55.4 186.1c-.3.6-.2 1.5.3 2s.9.1.9-1.1c0-2.3-.2-2.4-1.2-.9zM55 194c0 .5.5 1 1.1 1 .5 0 .7-.5.4-1-.3-.6-.8-1-1.1-1-.2 0-.4.4-.4 1zM51.3 196.6c0 1 .4 1.1 1.3.3.8-.7 1.4-.6 1.7.1.3.6.5.6.3-.1-.3-1.7-3.3-2-3.3-.3zM57 196.8c0 .4.9 1.3 2 2s2 .9 2 .4c0-.4-.9-1.3-2-2s-2-.9-2-.4zM205.7 196.7c-1 .9-.9 2.3.1 2.3.5 0 .9-.7.9-1.5 0-1.7-.1-1.8-1-.8zM199.6 198.9c-.4.5-.2 1.2.3 1.5.5.4 1.2.2 1.5-.3.4-.5.2-1.2-.3-1.5-.5-.4-1.2-.2-1.5.3zM54.6 200.2c.3.5 1 .6 1.5.3 1.3-.9 1.1-1.2-.6-1.2-.8 0-1.2.4-.9.9zM87 200c0 .5.5 1 1.1 1 .5 0 .7-.5.4-1-.3-.6-.8-1-1.1-1-.2 0-.4.4-.4 1zM107.6 199.8c-.3.5.1.9.9.9s1.2-.4.9-.9c-.3-.4-.7-.8-.9-.8-.2 0-.6.4-.9.8zM111 200c0 .5.5 1 1.1 1 .5 0 .7-.5.4-1-.3-.6-.8-1-1.1-1-.2 0-.4.4-.4 1zM116.1 201.2c-1.3 2.2-1.3 2.3.6.5 1.1-.9 2.3-1.4 2.8-1 .4.5.5.2.1-.5-1-1.8-1.9-1.5-3.5 1zM132.4 201.2c-1.9 2.3-1.9 2.3.2.5 1.1-.9 2.4-1.4 2.9-1 .4.5.5.2.1-.5-.9-1.6-1-1.6-3.2 1zM147.6 199.8c-.3.5.1.9.9.9s1.2-.4.9-.9c-.3-.4-.7-.8-.9-.8-.2 0-.6.4-.9.8zM175 200c0 .5.5 1 1.1 1 .5 0 .7-.5.4-1-.3-.6-.8-1-1.1-1-.2 0-.4.4-.4 1zM187.5 200c-.3.5-.1 1 .4 1 .6 0 1.1-.5 1.1-1 0-.6-.2-1-.4-1-.3 0-.8.4-1.1 1z"/></svg>